<svg width="486" height="283" viewBox="0 0 486 283" fill="none" xmlns="http://www.w3.org/2000/svg">
<path d="M0.994217 282.368H130.651V241.883C100.458 213.111 66.0194 232.921 63.7392 254.303C29.3788 231.978 -2.93718 249.823 0.994217 282.368Z" fill="#404EED"/>
<path d="M130.651 175.534H473.154V282.367H130.651V175.534Z" fill="#5865F2"/>
<path d="M473.154 208.551L130.651 180.958V175.534H473.154V208.551Z" fill="#4B59F2"/>
<path d="M130.651 175.534H133.167V282.367H130.651V175.534Z" fill="#3543DE"/>
<path d="M161.551 175.534H164.068V282.367H161.551V175.534Z" fill="#3543DE"/>
<path d="M192.452 175.534H194.968V282.367H192.452V175.534Z" fill="#3543DE"/>
<path d="M223.353 175.534H225.869V282.367H223.353V175.534Z" fill="#3543DE"/>
<path d="M254.332 175.534H256.848V282.367H254.332V175.534Z" fill="#3543DE"/>
<path d="M285.233 175.534H287.749V282.367H285.233V175.534Z" fill="#3543DE"/>
<path d="M316.134 175.534H318.65V282.367H316.134V175.534Z" fill="#3543DE"/>
<path d="M347.034 175.534H349.551V282.367H347.034V175.534Z" fill="#3543DE"/>
<path d="M377.935 175.534H380.451V282.367H377.935V175.534Z" fill="#3543DE"/>
<path d="M408.836 175.534H411.352V282.367H408.836V175.534Z" fill="#3543DE"/>
<path d="M439.737 175.534H442.253V282.367H439.737V175.534Z" fill="#3543DE"/>
<path d="M470.637 175.534H473.154V282.367H470.637V175.534Z" fill="#3543DE"/>
<path d="M380.215 76.7211C383.439 66.03 385.169 60.9202 379.35 57.7758C373.532 54.6314 355.841 56.7539 347.585 58.7191C339.329 60.6844 338.149 62.7283 343.575 70.8253L380.215 76.7211Z" fill="#FFF4B3"/>
<path d="M383.989 172.862C385.247 141.103 384.461 114.689 383.439 100.618C388.707 97.159 391.144 94.4863 392.167 92.9927C392.379 92.7049 392.487 92.3536 392.473 91.9959C392.458 91.639 392.323 91.297 392.088 91.0274C383.753 80.5721 376.598 71.4532 369.129 67.2082C361.659 62.9632 351.437 61.8627 335.161 78.0565C335.006 78.2638 334.929 78.5196 334.943 78.7782C334.957 79.0376 335.062 79.2829 335.24 79.4716C336.533 80.7545 337.898 81.962 339.329 83.0877C336.026 88.9835 331.23 97.9452 331.23 97.9452H327.456C325.037 97.9452 322.717 98.9058 321.007 100.616C319.296 102.326 318.335 104.645 318.335 107.064C318.257 114.375 319.986 123.179 323.367 134.499C308.271 146.763 311.966 172.783 311.966 172.783L383.989 172.862Z" fill="#29CC7A"/>
<path d="M323.367 134.5C322.896 132.849 322.424 131.356 322.031 129.783L333.903 136.387C333.903 136.387 352.695 123.73 384.225 115.869C384.776 130.491 384.854 150.301 383.989 172.862H311.966C311.966 172.862 308.271 146.763 323.367 134.5Z" fill="#8CD9FF"/>
<path d="M320.38 137.409C321.296 136.361 322.296 135.388 323.367 134.5C322.896 132.849 322.424 131.356 322.031 129.783L333.904 136.387C333.904 136.387 352.696 123.73 384.225 115.869C384.304 117.677 384.383 119.642 384.383 121.608C360.244 131.591 347.27 148.729 345.776 172.862H327.928C324.783 159.027 322.267 146.921 320.38 137.409Z" fill="#BAE8FF"/>
<path d="M374.711 106.672H374.397C374.239 106.514 374.082 106.436 374.004 106.2L367.163 84.1102C367.117 84.0174 367.091 83.916 367.089 83.8122C367.087 83.7093 367.106 83.6063 367.148 83.5119C367.189 83.4168 367.251 83.3319 367.328 83.2635C367.406 83.1951 367.497 83.1448 367.597 83.1157C367.696 83.0867 367.801 83.0796 367.903 83.0945C368.005 83.1102 368.103 83.148 368.189 83.2054C368.275 83.2627 368.347 83.3382 368.401 83.427C368.455 83.5151 368.489 83.6141 368.5 83.7171L375.104 105.099C377.958 103.882 380.695 102.408 383.282 100.697H383.439C383.439 101.169 383.518 101.719 383.518 102.191C380.801 103.938 377.933 105.438 374.947 106.672H374.711Z" fill="#05060C"/>
<path d="M345.462 71.1396L373.61 73.1835C342.159 79.158 340.823 80.0227 345.462 71.1396Z" fill="#05060C"/>
<path d="M329.894 153.525L332.881 125.618C332.94 125.125 333.184 124.672 333.564 124.351C333.943 124.031 334.43 123.865 334.926 123.888H337.914L339.25 121.294C339.664 120.58 340.319 120.036 341.097 119.763C341.876 119.489 342.727 119.502 343.496 119.801C344.29 120.138 344.933 120.753 345.305 121.53C351.202 134.186 354.111 155.018 354.661 158.949C354.674 159.133 354.627 159.316 354.528 159.472C354.429 159.627 354.283 159.747 354.111 159.814L337.127 165.238C337.033 165.287 336.926 165.308 336.82 165.298C336.714 165.287 336.613 165.246 336.53 165.18C336.446 165.113 336.384 165.023 336.35 164.922C336.317 164.82 336.314 164.712 336.341 164.609L336.97 156.669L330.68 154.704C330.431 154.632 330.216 154.474 330.072 154.257C329.928 154.042 329.865 153.783 329.894 153.525Z" fill="#EB459F"/>
<path d="M344.44 131.277L347.034 158.398" stroke="#D11583" stroke-width="2.46087" stroke-miterlimit="10" stroke-linecap="round"/>
<path d="M352.497 91.5874C351.41 91.1488 351.214 89.0954 352.06 87.002C352.906 84.9094 354.473 83.5683 355.56 84.0069C356.647 84.4464 356.842 86.4989 355.996 88.5923C355.151 90.6857 353.584 92.0268 352.497 91.5874Z" fill="#05060C"/>
<path d="M344.391 95.9338C342.989 93.2862 343.159 90.4483 344.771 89.5954C346.383 88.7417 348.825 90.1968 350.228 92.8436C351.63 95.4912 351.46 98.3291 349.848 99.1828C348.237 100.036 345.793 98.5814 344.391 95.9338Z" stroke="white" stroke-width="2.46087" stroke-miterlimit="10"/>
<path d="M332.813 95.9492C331.411 93.3023 331.581 90.4644 333.193 89.6107C334.805 88.7578 337.248 90.2121 338.65 92.8597C340.052 95.5074 339.882 98.3452 338.27 99.1981C336.658 100.051 334.215 98.5968 332.813 95.9492Z" stroke="white" stroke-width="2.46087" stroke-miterlimit="10"/>
<path d="M340.765 91.2088C340.04 90.9164 340.112 89.0478 340.926 87.0346C341.739 85.0221 342.986 83.6276 343.711 83.9208C344.435 84.2132 344.363 86.0818 343.55 88.095C342.737 90.1075 341.49 91.502 340.765 91.2088Z" fill="#05060C"/>
<path d="M333.274 111.782C339.345 111.801 345.236 109.718 349.944 105.886C354.818 101.877 352.853 101.405 349.786 101.326C346.72 101.248 332.016 101.798 327.771 102.427C323.525 103.056 322.738 111.467 333.274 111.782Z" fill="#912869"/>
<path d="M333.274 111.782C339.345 111.801 345.236 109.718 349.944 105.886C354.818 101.877 352.853 101.405 349.786 101.326C346.72 101.248 332.016 101.798 327.771 102.427C323.525 103.056 322.738 111.467 333.274 111.782Z" fill="#611B46"/>
<path d="M333.589 120.586L333.903 117.677C331.682 117.5 329.518 116.886 327.535 115.869" stroke="#05060C" stroke-width="2.46087" stroke-linecap="round" stroke-linejoin="round"/>
<path d="M330.365 111.388C334.611 107.3 340.351 104.234 350.966 104.942C341.845 113.353 332.331 111.938 330.365 111.388Z" fill="#EB459F"/>
<path d="M343.889 93.1504H339.093" stroke="white" stroke-width="2.46087" stroke-miterlimit="10"/>
<path d="M351.123 94.0942L371.409 85.8401C371.834 85.675 372.293 85.616 372.746 85.6663C373.2 85.7174 373.634 85.877 374.013 86.1317C374.391 86.3864 374.703 86.7292 374.92 87.1301C375.137 87.531 375.255 87.9783 375.262 88.4342C375.271 88.9711 375.119 89.4978 374.824 89.9467C374.53 90.3948 374.107 90.7446 373.61 90.9498L372.274 91.5787" stroke="white" stroke-width="2.46087" stroke-miterlimit="10" stroke-linecap="round"/>
<path d="M355.369 83.7969C353.774 83.8377 352.181 83.6255 350.651 83.168" stroke="#05060C" stroke-width="2.46087" stroke-miterlimit="10" stroke-linecap="round"/>
<path d="M343.575 83.7969C342.569 83.8228 341.571 83.6074 340.665 83.168" stroke="#05060C" stroke-width="2.46087" stroke-miterlimit="10" stroke-linecap="round"/>
<path d="M377.542 73.9701C349.472 73.577 339.958 70.4326 331.938 67.524C323.918 64.6154 324.704 62.3356 330.837 62.5715C336.97 62.8073 357.963 70.8256 377.542 73.9701Z" fill="#FFF4B3"/>
<path d="M384.461 124.125L384.618 131.829L380.766 130.335C380.766 130.335 360.244 121.766 355.369 120.587C350.494 119.408 345.855 121.688 338.857 124.361C331.859 127.033 333.668 129.47 335.869 131.829C338.071 134.187 337.992 134.03 349.55 134.03C371.645 149.988 378.407 159.343 387.449 159.343C392.874 159.343 397.513 156.906 400.973 146.214C404.433 135.523 397.985 130.649 384.461 124.125Z" fill="#29CC7A"/>
<path d="M307.485 132.928L319.279 118.699L339.407 138.745L325.176 150.615C325.333 151.952 325.176 152.974 324.468 153.681C322.345 155.804 316.134 153.052 310.551 147.549C304.968 142.047 302.295 135.758 304.418 133.635C305.126 132.928 306.148 132.771 307.485 132.928Z" fill="white"/>
<path d="M326.698 131.417C321.171 125.891 317.885 120.217 319.359 118.743C320.832 117.27 326.508 120.555 332.035 126.081C337.562 131.607 340.848 137.281 339.374 138.755C337.9 140.228 332.225 136.943 326.698 131.417Z" fill="white"/>
<path d="M328.065 130.07C323.059 125.066 319.699 120.312 320.559 119.453C321.418 118.593 326.173 121.953 331.178 126.957C336.183 131.961 339.543 136.715 338.684 137.575C337.824 138.434 333.069 135.074 328.065 130.07Z" fill="#BAE8FF"/>
<path d="M308.585 126.954C305.204 127.425 303.868 130.491 305.204 134.579C305.356 135.014 305.617 135.403 305.963 135.707C306.309 136.012 306.728 136.222 307.179 136.316C307.63 136.411 308.098 136.389 308.537 136.249C308.976 136.109 309.372 135.859 309.686 135.522C310.464 134.698 310.935 133.631 311.021 132.5C311.107 131.37 310.802 130.245 310.158 129.312L308.585 126.954Z" fill="#29CC7A"/>
<path d="M314.482 124.596C314.64 127.505 316.369 130.413 317.628 132.3C317.967 132.829 318.121 133.457 318.064 134.083C318.007 134.709 317.742 135.299 317.313 135.759L316.684 136.309C316.48 136.518 316.234 136.684 315.965 136.798C315.694 136.911 315.405 136.969 315.111 136.969C314.819 136.969 314.529 136.911 314.259 136.798C313.989 136.684 313.744 136.518 313.539 136.309C311.17 134.147 309.5 131.328 308.743 128.212C307.799 123.967 310.866 120.98 316.212 122.395L314.482 124.596Z" fill="#29CC7A"/>
<path d="M377.542 73.9699L367.949 73.1838L344.911 68.6244L350.651 62.9644H378.092L377.542 73.9699Z" fill="#FFF4B3"/>
<path d="M331.073 102.977L336.577 102.662C335.948 105.964 334.375 107.693 333.039 107.143C331.702 106.593 331.23 103.684 331.073 102.977Z" fill="white"/>
<path d="M348.056 102.27C347.349 106.043 345.933 108.008 344.597 107.379C343.26 106.75 342.946 103.606 342.71 102.348L348.056 102.27Z" fill="white"/>
<path d="M117.992 175.534H480.545" stroke="#2835BD" stroke-width="9.84348" stroke-linecap="round" stroke-linejoin="round"/>
<path d="M338.936 137.172C338.877 137.334 338.767 137.473 338.621 137.565C338.542 137.565 338.542 137.565 338.542 137.644C338.542 137.723 332.881 134.893 328.006 130.019V129.862L331.073 126.874L333.589 124.28L336.891 124.437L343.339 122L343.575 122.551C340.823 123.494 340.272 133.399 338.936 137.172Z" fill="#EB459F"/>
<path d="M337.913 123.967C336.586 126.652 335.405 129.407 334.375 132.221C334.321 132.348 334.234 132.458 334.124 132.541C334.014 132.623 333.884 132.676 333.746 132.693H333.51C333.345 132.623 333.208 132.501 333.123 132.344C333.036 132.186 333.007 132.004 333.039 131.828C333.117 131.592 334.847 127.033 336.42 123.967H337.913Z" fill="#D11583"/>
<path d="M336.97 156.825H337.127L343.182 158.633C343.293 158.667 343.395 158.728 343.476 158.81C343.559 158.892 343.62 158.993 343.653 159.105C343.676 159.233 343.666 159.365 343.625 159.489C343.583 159.612 343.513 159.724 343.417 159.812L338.071 164.45C338.039 164.526 337.983 164.59 337.912 164.631C337.842 164.674 337.759 164.693 337.678 164.686C337.575 164.689 337.472 164.67 337.377 164.63C337.281 164.589 337.196 164.527 337.127 164.45C337.064 164.379 337.014 164.296 336.983 164.205C336.953 164.114 336.94 164.018 336.947 163.923C336.955 163.827 336.982 163.734 337.026 163.649C337.071 163.564 337.132 163.489 337.206 163.429L341.609 159.577L336.891 158.162L336.97 156.825Z" fill="#D11583"/>
<path d="M384.854 131.592L395.941 136.859" stroke="#05060C" stroke-width="2.46087" stroke-linecap="round" stroke-linejoin="round"/>
<path d="M341.688 64.9297C353.806 68.1758 366.09 70.7736 378.485 72.7122" stroke="#FFC619" stroke-width="2.46087" stroke-miterlimit="10" stroke-linecap="round"/>
<path d="M331.859 140.238L323.367 148.021C323.101 148.255 322.765 148.396 322.41 148.425C322.057 148.453 321.703 148.366 321.402 148.178C321.211 148.043 321.053 147.866 320.938 147.662C320.824 147.458 320.758 147.231 320.743 146.997C320.728 146.764 320.765 146.529 320.852 146.312C320.938 146.095 321.073 145.9 321.244 145.741L329.5 137.801C329.753 137.572 330.069 137.426 330.407 137.384C330.744 137.342 331.087 137.405 331.387 137.565L331.623 137.722C331.834 137.85 332.011 138.024 332.141 138.233C332.272 138.44 332.352 138.676 332.375 138.921C332.398 139.165 332.363 139.412 332.273 139.641C332.184 139.869 332.042 140.074 331.859 140.238Z" fill="#BAE8FF"/>
<path d="M310.551 133.871C309.117 131.968 308.221 129.714 307.956 127.347" stroke="#05060C" stroke-width="2.46087" stroke-linecap="round" stroke-linejoin="round"/>
<path d="M240.817 25.1775C240.101 21.7789 242.345 18.4286 245.829 17.6945C249.313 16.9604 252.719 19.1204 253.435 22.519C254.151 25.9177 251.907 29.2679 248.423 30.002C244.939 30.7361 241.533 28.5761 240.817 25.1775Z" fill="#2A39D4"/>
<path d="M198.744 83.5596C193.004 83.874 186.085 86.2323 177.436 95.8229C172.561 90.949 170.202 92.2854 163.676 97.8668C157.15 103.448 143.154 114.061 139.694 117.598C136.235 121.136 133.64 128.761 143.075 134.5C152.511 140.238 169.259 129.704 178.065 123.573C186.871 117.441 198.744 110.287 198.744 110.287V83.5596Z" fill="#2331B5"/>
<path d="M166.271 95.667C163.984 99.4325 162.062 103.407 160.531 107.537C158.722 113.197 161.003 116.499 165.642 120.351C170.281 124.203 172.168 123.338 174.605 121.373C174.752 121.289 174.925 121.26 175.092 121.293C175.258 121.326 175.407 121.417 175.512 121.55C175.617 121.684 175.671 121.85 175.663 122.02C175.655 122.189 175.586 122.35 175.47 122.473C174.224 123.567 172.644 124.204 170.988 124.281C169.023 124.281 167.057 123.338 164.698 121.373C160.688 117.993 156.914 114.141 159.273 107.066C160.147 104.52 161.225 102.049 162.496 99.6762C162.991 98.7242 163.658 97.8712 164.462 97.1606L166.271 95.667Z" fill="#3442D9"/>
<path d="M178.143 119.171C173.898 123.259 163.755 130.491 163.755 130.491" stroke="#05060C" stroke-width="2.46087" stroke-miterlimit="10" stroke-linecap="round"/>
<path d="M219.83 82.5565C199.492 76.7638 187.237 57.2085 192.46 38.8782C197.682 20.5478 218.405 10.384 238.743 16.1763C259.082 21.9688 271.336 41.5242 266.114 59.8545C260.891 78.1848 240.169 88.3486 219.83 82.5565Z" fill="#FF78B9"/>
<path d="M256.064 45.5911C256.064 53.1377 252.447 59.8197 247.965 60.5272C243.483 61.2347 242.382 57.3041 242.225 49.9933C242.225 48.1066 242.146 46.22 241.989 44.2548C241.517 37.4942 243.955 33.7994 247.965 33.1705C251.975 32.5416 256.064 38.0444 256.064 45.5911Z" fill="white"/>
<path d="M222.725 46.0633C223.503 45.0516 223.964 43.8316 224.048 42.5581C224.131 41.2846 223.836 40.0148 223.197 38.9097C216.907 28.2186 211.167 27.8255 207.079 28.0613C202.99 28.2972 199.845 32.1491 203.226 41.8969C198.429 47.0852 200.395 51.8805 207.236 52.5094C214.076 53.1383 217.772 52.588 222.725 46.0633Z" fill="#D11583"/>
<path d="M177.75 150.852C176.807 125.068 185.063 121.766 185.849 114.062C186.635 106.358 187.422 95.9814 195.913 84.8186C195.913 84.8186 194.891 74.3635 194.341 67.3671C194.327 67.0917 194.374 66.8166 194.478 66.5612C194.582 66.3059 194.741 66.0764 194.943 65.8891C195.146 65.7016 195.387 65.5609 195.649 65.4767C195.912 65.3925 196.19 65.367 196.464 65.4018C201.974 66.2787 207.557 66.621 213.133 66.4238C222.725 66.1093 235.699 65.166 249.538 78.6083L245.056 84.8972L245.37 85.4475C245.592 85.8264 245.728 86.2501 245.768 86.688C245.807 87.1251 245.751 87.5661 245.601 87.9788C245.45 88.3923 245.211 88.7665 244.899 89.0762C244.587 89.3859 244.211 89.6233 243.798 89.7711L242.933 90.0856C242.933 90.0856 255.592 97.7108 251.818 114.927C248.044 132.143 252.054 148.808 245.685 153.918C244.396 154.942 242.866 155.617 241.241 155.878C239.616 156.14 237.951 155.979 236.407 155.411L207.236 170.976C196.621 182.689 181.524 195.818 181.524 195.818L193.161 223.567L180.895 254.461C170.438 228.834 156.678 203.679 154.241 192.044C151.803 180.41 159.666 173.571 177.75 150.852Z" fill="#2331B5"/>
<path d="M189.23 238.66C183.411 220.658 176.885 204.386 174.92 199.669C174.753 199.255 174.717 198.801 174.815 198.365C174.913 197.93 175.142 197.535 175.47 197.232C192.454 180.96 196.464 175.378 196.464 175.378" stroke="#3442D9" stroke-width="2.46087" stroke-miterlimit="10"/>
<path d="M234.126 139.767L244.662 132.614C244.662 132.614 238.294 123.888 234.755 118.621L233.89 117.285C233.857 117.205 233.807 117.134 233.744 117.074C233.681 117.015 233.607 116.969 233.526 116.94C233.445 116.91 233.359 116.897 233.272 116.903C233.186 116.908 233.103 116.931 233.026 116.97C232.881 117.038 232.763 117.153 232.692 117.295C232.621 117.438 232.599 117.6 232.632 117.756C234.913 131.671 234.126 139.767 234.126 139.767Z" fill="#05060C"/>
<path d="M194.498 68.7031C200.081 70.5898 207.472 70.5112 216.278 70.2753C225.084 70.0395 233.969 69.8037 248.515 80.0231L246.157 83.4033C232.711 73.8915 225.477 74.1273 216.357 74.3631C207.236 74.599 200.788 74.6776 194.813 73.1054C194.734 71.6117 194.577 70.1181 194.498 68.7031Z" fill="#3442D9"/>
<path d="M198.744 149.593C198.569 149.594 198.4 149.53 198.269 149.414C198.138 149.298 198.055 149.138 198.036 148.964C197.879 136.308 202.675 123.415 204.72 118.463C206.865 113.362 208.167 107.945 208.572 102.426C209.201 95.2726 210.695 89.6912 211.639 87.4901L208.966 66.4224H210.381L213.054 87.7259V87.8831C212.189 89.7698 210.617 95.3512 209.988 102.583C209.573 108.228 208.272 113.772 206.135 119.013C204.012 123.887 199.294 136.543 199.452 148.885C199.452 149.073 199.377 149.253 199.244 149.385C199.111 149.518 198.931 149.593 198.744 149.593Z" fill="#05060C"/>
<path d="M153.297 272.226C153.577 271.811 153.95 271.467 154.388 271.222C154.824 270.976 155.312 270.836 155.813 270.811C155.341 267.981 155.892 265.623 159.587 264.758C163.854 263.838 168.28 263.973 172.482 265.151C179.716 246.599 194.026 197.703 204.012 162.013L236.407 155.41C236.721 164.293 230.903 183.867 226.657 200.69C222.411 217.513 213.054 252.731 210.459 265.466C208.887 273.17 206.607 282.367 206.607 282.367H176.571C167.765 282.367 156.442 278.908 154.241 277.179C152.039 275.449 152.511 273.641 153.297 272.226Z" fill="#2331B5"/>
<path d="M201.496 264.208C210.774 234.965 224.298 195.659 232.554 155.725" stroke="#3442D9" stroke-width="2.46087" stroke-miterlimit="10"/>
<path d="M216.907 150.851C216.75 148.572 219.895 140.003 223.669 133.793C227.443 127.582 229.33 123.18 232.868 125.224C236.407 127.268 244.663 132.614 244.663 132.614C244.663 132.614 238.294 123.888 234.755 118.621C227.129 107.144 229.802 91.3427 242.933 90.085C253.705 96.0594 255.356 101.169 265.578 119.171C275.799 137.173 281.854 156.354 270.846 164.294C259.838 172.234 249.223 166.731 229.409 158.005C220.838 154.31 216.986 153.21 216.907 150.851Z" fill="#2331B5"/>
<path d="M229.252 156.825C231.453 155.803 233.419 152.502 235.778 145.741C239.709 134.343 240.731 130.884 238.294 128.525L239.788 129.469C240.141 129.682 240.435 129.981 240.641 130.338C240.848 130.696 240.959 131.1 240.967 131.513C241.046 134.5 239.552 138.902 237.036 146.213C235.463 150.772 234.048 153.838 232.554 155.725C231.985 156.524 231.158 157.101 230.212 157.359C229.266 157.617 228.259 157.539 227.365 157.14C228.01 157.203 228.661 157.094 229.252 156.825Z" fill="#3442D9"/>
<path d="M223.669 133.792C227.365 127.582 229.33 123.18 232.868 125.224C236.407 127.267 254.491 138.666 254.491 138.666" stroke="#05060C" stroke-width="2.46087" stroke-miterlimit="10" stroke-linecap="round"/>
<path d="M183.018 88.5919C185.446 72.2552 186.368 55.7297 185.77 39.2242C185.752 38.6972 185.858 38.1734 186.079 37.6946C186.3 37.2158 186.63 36.7954 187.043 36.4669C187.456 36.1384 187.94 35.911 188.455 35.8028C188.972 35.6947 189.506 35.7087 190.016 35.844L209.594 41.3467" stroke="#66BCFF" stroke-width="4.92174" stroke-miterlimit="10" stroke-linecap="round"/>
<path d="M195.599 89.9278C193.712 93.5439 190.331 99.99 189.623 102.113C189.387 105.414 189.545 111.074 189.545 112.804C189.536 112.964 189.478 113.117 189.38 113.244C189.282 113.37 189.147 113.463 188.994 113.511C183.647 114.297 181.367 114.376 179.166 114.14C176.964 113.904 173.898 112.882 171.775 112.253C171.549 112.165 171.366 111.993 171.264 111.774C171.161 111.555 171.147 111.304 171.224 111.074C173.19 104.628 174.527 99.99 174.527 99.99C174.92 91.9717 174.998 85.6042 174.998 83.4817C174.998 83.2734 175.081 83.0737 175.229 82.9259C175.376 82.7781 175.576 82.6956 175.785 82.6956C183.097 82.2239 185.613 82.2239 188.286 82.3811C190.96 82.5384 191.825 84.1106 195.52 88.5128C195.685 88.7086 195.781 88.9522 195.795 89.2069C195.81 89.4624 195.74 89.7156 195.599 89.9278Z" fill="white"/>
<path d="M172.01 111.624C172.01 111.624 171.146 111.939 171.775 112.253C171.549 112.165 171.366 111.993 171.264 111.774C171.161 111.555 171.147 111.304 171.224 111.074C173.19 104.628 174.527 99.99 174.527 99.99C174.92 91.9717 174.998 85.6042 174.998 83.4817C174.998 83.2734 175.081 83.0737 175.229 82.9259C175.376 82.7781 175.575 82.6956 175.785 82.6956C183.097 82.2239 185.613 82.2239 188.286 82.3811C188.855 82.4197 189.412 82.5525 189.938 82.7742L183.018 97.3959L183.49 110.838L172.01 111.624Z" fill="#FFE75C"/>
<path d="M182.625 111.232C181.288 116.027 180.109 119.407 177.121 120.036C174.133 120.665 170.595 117.599 166.035 113.04C161.474 108.48 163.047 104.628 165.013 101.012C166.978 97.396 167.293 92.8365 169.73 90.9499C172.747 88.7315 175.989 86.8346 179.401 85.2899C182.153 84.1107 183.805 84.1107 187.972 88.8274C192.139 93.544 194.577 96.2954 193.869 98.1821C193.161 100.069 191.982 102.113 191.982 102.113C193.869 103.999 193.869 105.572 193.083 107.537C192.296 109.502 191.982 111.31 187.972 111.31L182.625 111.232Z" fill="#FF78B9"/>
<path d="M191.825 101.248L180.817 90.8711" stroke="#05060C" stroke-width="2.46087" stroke-miterlimit="10" stroke-linecap="round"/>
<path d="M181.76 105.334C184.232 106.894 186.807 108.286 189.466 109.501C189.545 110.994 189.545 112.174 189.545 112.803C189.536 112.963 189.478 113.116 189.38 113.243C189.281 113.369 189.147 113.462 188.994 113.51C183.647 114.296 181.367 114.375 179.166 114.139C176.964 113.903 173.898 112.881 171.775 112.252C171.549 112.164 171.366 111.992 171.264 111.773C171.161 111.553 171.147 111.303 171.224 111.073L171.696 109.501C175.205 108.52 178.585 107.121 181.76 105.334Z" fill="white"/>
<path d="M171.696 109.501C175.205 108.52 178.585 107.121 181.76 105.334L183.333 106.356L183.49 110.68C183.47 110.734 183.439 110.784 183.398 110.824C183.357 110.865 183.308 110.896 183.254 110.916L172.01 111.623C172.01 111.623 171.146 111.938 171.775 112.252C171.539 112.167 171.344 112 171.224 111.781C171.224 111.702 171.146 111.545 171.146 111.466C171.133 111.33 171.16 111.194 171.224 111.073L171.696 109.579V109.501Z" fill="#FFE75C"/>
<path d="M230.116 127.19C227.643 124.311 225.819 120.933 224.77 117.285C223.983 114.927 223.118 111.547 222.804 110.289C222.489 109.031 220.996 108.324 219.187 108.717C217.379 109.11 216.592 109.424 216.907 112.647C217.221 115.87 217.929 123.495 217.929 123.495L230.116 127.19Z" fill="#FF78B9"/>
<path d="M193.948 129.076C195.127 125.853 195.677 124.203 196.7 122.866C197.722 121.53 198.665 121.294 203.226 121.058C205.034 120.98 208.494 121.058 210.774 121.137C206.292 119.958 201.496 118.936 200.474 118.621C199.452 118.307 197.407 117.992 198.115 116.027C198.823 114.062 199.452 113.59 200.552 113.59C203.373 113.536 206.193 113.773 208.965 114.298C213.011 115.09 216.982 116.22 220.838 117.678C223.118 118.621 226.028 122.866 230.116 127.19C228.308 133.557 223.983 143.305 219.58 147.943C213.762 145.663 210.302 140.632 208.887 138.746C201.574 137.488 199.058 138.274 194.97 138.824C192.454 139.139 192.218 137.331 192.061 136.466C191.903 135.601 192.925 132.064 193.948 129.076Z" fill="#FF78B9"/>
<path d="M253.705 45.6706C253.941 48.9722 252.84 51.7236 251.267 51.8809C249.695 52.0381 248.908 50.7803 248.83 47.7145C248.794 46.4185 248.636 45.1289 248.358 43.8625C247.808 41.1111 248.987 40.0892 250.324 40.0106C251.66 39.932 253.469 42.4475 253.705 45.6706Z" fill="#05060C"/>
<path d="M226.735 6.83583C225.104 6.49704 223.405 6.76536 221.956 7.59039C220.509 8.41541 219.412 9.7404 218.873 11.3166C217.693 15.0114 216.671 20.5927 222.961 21.6147C225.635 22.0077 228.386 20.8286 232.632 17.5269C235.699 15.09 239.001 14.2252 246.156 17.92C250.009 15.2472 248.122 8.40802 237.665 11.8669C242.225 5.9711 240.888 1.88333 237.586 0.704159C234.284 -0.475008 229.33 0.153883 226.735 6.83583Z" fill="#2A39D4"/>
<path d="M226.736 18.1563C229.016 15.3263 230.903 11.5529 232.475 8.32987C234.048 5.1068 235.62 1.72653 237.35 0.70459H237.586C238.204 0.920495 238.768 1.26933 239.237 1.72653L238.687 1.5693C237.193 1.72653 235.542 5.18542 233.733 8.88015C231.925 12.5749 230.195 16.0338 227.836 19.021C227.044 19.9586 226.147 20.8025 225.163 21.5365C224.438 21.6801 223.694 21.7066 222.961 21.6151H222.883C224.331 20.6592 225.629 19.4935 226.736 18.1563Z" fill="#05060C"/>
<path d="M218.794 19.2564C219.131 19.7504 219.557 20.1771 220.052 20.5142C220.425 15.2953 222.756 10.4098 226.578 6.83586C225.986 6.69118 225.372 6.66446 224.77 6.75724C221.479 10.1688 219.383 14.5539 218.794 19.2564Z" fill="#05060C"/>
<path d="M210.774 263.737C210.695 264.366 210.538 264.916 210.46 265.466C208.887 273.17 206.607 282.368 206.607 282.368H176.571C167.765 282.368 156.442 278.909 154.241 277.179C152.039 275.45 152.511 273.642 153.297 272.227C153.578 271.812 153.951 271.468 154.388 271.222C154.824 270.976 155.312 270.836 155.813 270.812C155.341 267.982 155.892 265.624 159.587 264.759C163.854 263.838 168.28 263.974 172.482 265.152C173.583 262.243 174.92 258.627 176.335 254.461C189.545 254.225 202.99 253.124 210.774 263.737Z" fill="#45AAF7"/>
<path d="M210.774 263.737C210.695 264.366 210.538 264.916 210.46 265.466C208.887 273.17 206.607 282.368 206.607 282.368H176.571C167.765 282.368 156.442 278.909 154.241 277.179C152.039 275.45 152.511 273.642 153.297 272.227C153.578 271.812 153.951 271.468 154.388 271.222C154.824 270.976 155.312 270.836 155.813 270.812C155.341 267.982 155.892 265.624 159.587 264.759C163.854 263.838 168.28 263.974 172.482 265.152C173.583 262.243 174.92 258.627 176.335 254.461C189.545 254.225 202.99 253.124 210.774 263.737Z" fill="#45AAF7"/>
<path d="M172.482 265.153L173.504 265.389H173.662L182.232 267.118C182.37 266.936 182.452 266.717 182.468 266.489C183.114 264.266 183.458 261.965 183.49 259.65C183.569 254.855 186.085 254.383 190.409 254.462L190.174 253.912C189.592 252.388 188.556 251.08 187.205 250.166C185.855 249.251 184.256 248.776 182.625 248.802H175.47C175.051 248.807 174.639 248.903 174.261 249.083C173.883 249.263 173.548 249.522 173.28 249.843C173.011 250.164 172.814 250.539 172.704 250.942C172.593 251.346 172.571 251.769 172.64 252.182C173.504 255.877 173.74 260.436 172.875 263.816C172.791 264.275 172.66 264.723 172.482 265.153Z" fill="#8CD9FF"/>
<path d="M202.833 269.947C203.9 269.589 205.03 269.453 206.152 269.548C207.275 269.642 208.366 269.965 209.359 270.498C209.291 270.977 209.187 271.45 209.044 271.913C208.197 271.383 207.244 271.045 206.252 270.923C205.261 270.8 204.254 270.897 203.304 271.205C198.901 272.699 195.678 278.437 194.026 282.368H192.532C194.262 278.28 197.722 271.677 202.833 269.947Z" fill="#5865F2"/>
<path d="M153.533 276.472L154.24 277.179C156.442 278.909 167.764 282.368 176.571 282.368H194.498V282.053C173.897 281.739 159.902 273.17 155.105 273.17C153.533 273.17 152.589 275.529 153.533 276.472Z" fill="#05060C"/>
<path d="M173.269 108.401C172.148 109.904 170.533 110.963 168.708 111.389" stroke="#05060C" stroke-width="2.46087" stroke-miterlimit="10" stroke-linecap="round"/>
<path d="M207.786 102.348C208.568 102.352 209.324 102.065 209.906 101.541C210.487 101.018 210.853 100.297 210.931 99.5184L211.56 92.3647H210.145L205.978 99.2039C205.801 99.5231 205.711 99.8823 205.715 100.247C205.718 100.611 205.816 100.969 205.997 101.285C206.179 101.601 206.439 101.864 206.752 102.05C207.066 102.237 207.421 102.34 207.786 102.348Z" fill="#FFE75C"/>
<path d="M242.933 90.085H235.227" stroke="#05060C" stroke-width="2.46087" stroke-miterlimit="10" stroke-linecap="round"/>
<path d="M199.137 179.388C200.081 176.007 201.496 171.212 201.496 171.212C195.174 167.09 189.155 162.519 183.49 157.534C183.49 157.534 190.016 171.998 192.926 185.441L199.137 179.388Z" fill="#05060C"/>
<path d="M181.525 195.817L173.898 195.502" stroke="#05060C" stroke-width="2.46087" stroke-miterlimit="10" stroke-linecap="round"/>
<path d="M172.482 265.151L173.504 265.387H173.662C177.078 266.194 180.439 267.218 183.726 268.453H183.962C184.101 268.446 184.235 268.396 184.348 268.312C184.46 268.229 184.544 268.113 184.591 267.981C184.628 267.9 184.647 267.811 184.647 267.72C184.647 267.631 184.629 267.541 184.592 267.459C184.554 267.378 184.5 267.304 184.432 267.246C184.364 267.186 184.284 267.143 184.198 267.117L182.468 266.409C179.329 265.318 176.126 264.426 172.875 263.736C172.797 264.221 172.665 264.696 172.482 265.151Z" fill="#05060C"/>
<path d="M193.712 129.705L193.948 129.076L194.262 128.29C201.103 127.582 208.258 127.111 215.256 127.818C215.348 127.828 215.438 127.858 215.521 127.902C215.602 127.947 215.675 128.008 215.733 128.082C215.791 128.154 215.834 128.238 215.86 128.328C215.886 128.417 215.895 128.512 215.885 128.604C215.875 128.697 215.845 128.788 215.801 128.869C215.755 128.951 215.694 129.023 215.621 129.082C215.548 129.14 215.465 129.184 215.375 129.21C215.286 129.236 215.191 129.243 215.098 129.233C208.022 128.447 200.71 128.997 193.712 129.705Z" fill="#05060C"/>
<path d="M247.1 42.1318L251.661 44.3329L245.292 47.2416L247.1 42.1318Z" fill="white"/>
<path d="M153.533 276.471C153.061 275.843 153.612 275.45 155.106 275.45C159.902 275.45 173.898 282.053 194.498 282.367H206.607L207.472 278.908C198.036 278.908 187.736 278.751 178.144 275.685C168.551 272.62 162.182 270.025 155.813 270.812C155.312 270.836 154.824 270.976 154.388 271.222C153.951 271.467 153.578 271.811 153.297 272.226C152.871 272.864 152.663 273.623 152.706 274.388C152.748 275.154 153.038 275.885 153.533 276.471Z" fill="white"/>
<path d="M178.143 251.316H177.2C174.998 251.316 173.504 251.395 173.033 251.945C172.561 252.496 172.797 252.731 172.954 253.518C172.886 253.064 172.781 252.617 172.64 252.181C172.571 251.692 172.698 251.196 172.992 250.799C173.286 250.402 173.724 250.136 174.212 250.059H178.143C181.76 250.059 185.849 250.059 187.972 254.697C187.489 254.684 187.009 254.764 186.557 254.932C184.748 251.238 181.524 251.316 178.143 251.316Z" fill="#3442D9"/>
<path d="M207.786 37.8086C208.808 39.4594 210.617 41.3461 214.627 42.1322C209.123 41.5033 206.764 44.5691 206.764 44.5691" stroke="#05060C" stroke-width="2.46087" stroke-linecap="round" stroke-linejoin="round"/>
<path d="M310.237 282.368H362.525V271.362C362.534 268.518 361.433 265.783 359.458 263.737L354.269 258.706C353.604 258.079 353.073 257.324 352.708 256.486C352.343 255.648 352.151 254.745 352.146 253.832V241.254C352.14 238.735 351.282 236.293 349.712 234.324C348.141 232.354 345.951 230.973 343.497 230.406C335.084 228.283 326.356 227.89 319.201 229.305C316.668 229.829 314.394 231.21 312.762 233.214C311.129 235.22 310.237 237.725 310.237 240.311V282.368Z" fill="#45AAF7"/>
<path d="M349.079 261.3H348.765C348.641 261.307 348.519 261.282 348.408 261.227C348.298 261.171 348.204 261.089 348.136 260.986C345.777 256.427 345.777 249.351 345.777 241.805C345.777 234.258 345.069 231.428 340.037 229.542L342.711 230.092C343.4 230.247 344.046 230.554 344.604 230.989C345.161 231.423 345.615 231.976 345.934 232.607C347.035 234.808 347.192 237.717 347.192 241.805C347.192 249.194 347.192 256.112 349.394 260.357C349.447 260.436 349.481 260.528 349.495 260.623C349.507 260.718 349.498 260.815 349.468 260.906C349.437 260.997 349.387 261.08 349.319 261.148C349.252 261.216 349.17 261.269 349.079 261.3Z" fill="#BAE8FF"/>
<path d="M310.237 240.311C310.241 237.714 311.144 235.2 312.792 233.194C314.441 231.188 316.733 229.814 319.279 229.305C323.484 228.582 327.758 228.344 332.017 228.598C342.082 229.305 340.587 235.673 340.587 244.949V252.888C340.583 255.542 341.288 258.147 342.632 260.435C344.126 262.872 344.518 265.859 344.518 271.676V282.368H310.237V240.311Z" fill="#3F99F2"/>
<path d="M322.818 269.712C323.289 256.033 329.501 244.085 335.791 232.686C335.952 232.46 336.046 232.193 336.064 231.916C336.081 231.64 336.022 231.363 335.891 231.118C335.761 230.873 335.564 230.67 335.324 230.53C335.084 230.391 334.81 230.321 334.533 230.328H332.961C332.63 230.346 332.31 230.441 332.023 230.604C331.736 230.768 331.492 230.997 331.309 231.271C324.862 243.141 318.1 255.483 317.628 269.712C317.392 276.865 322.818 282.368 330.051 282.368H335.241C328.007 282.368 322.582 276.865 322.818 269.712Z" fill="#3543DE"/>
<path d="M308.036 269.712C308.507 256.033 314.798 244.085 321.009 232.686C321.17 232.46 321.264 232.193 321.282 231.916C321.3 231.64 321.24 231.363 321.109 231.118C320.979 230.873 320.783 230.67 320.542 230.53C320.302 230.391 320.028 230.321 319.75 230.328H318.178C317.858 230.339 317.545 230.431 317.27 230.596C316.995 230.761 316.766 230.993 316.605 231.271C310.079 243.141 303.396 255.483 302.846 269.712C302.769 271.374 303.037 273.035 303.631 274.589C304.225 276.143 305.134 277.558 306.3 278.746C307.466 279.934 308.864 280.868 310.407 281.492C311.95 282.115 313.605 282.413 315.269 282.368H320.459C318.794 282.413 317.139 282.115 315.597 281.492C314.053 280.868 312.655 279.934 311.489 278.746C310.323 277.558 309.415 276.143 308.82 274.589C308.226 273.035 307.959 271.374 308.036 269.712Z" fill="#3543DE"/>
<path d="M320.852 248.485L304.891 251.237C303.633 254.538 303.004 256.74 302.846 258.862C302.689 260.985 304.733 262.164 307.879 263.421C310.136 264.364 312.212 265.695 314.011 267.352C318.572 271.361 322.425 273.798 329.108 273.798C330.445 273.798 331.388 273.877 332.175 273.012C333.01 272.072 333.503 270.877 333.574 269.622C333.646 268.366 333.291 267.123 332.568 266.094C331.759 264.998 330.777 264.042 329.658 263.264C327.282 261.723 325.275 259.677 323.78 257.273C322.285 254.868 321.339 252.163 321.009 249.35C320.931 248.957 320.931 248.721 320.852 248.485Z" fill="#DE3A93"/>
<path d="M307.878 263.422C306.552 262.926 305.307 262.237 304.183 261.378C302.689 259.963 303.318 258.626 306.542 258.705C309.766 258.784 313.147 261.299 319.909 265.466C326.671 269.632 336.734 273.798 329.107 273.798C321.48 273.798 318.572 271.361 314.011 267.352C312.212 265.695 310.136 264.364 307.878 263.422Z" fill="#05060C"/>
<path d="M322.582 243.691C323.761 243.927 323.604 245.263 322.975 246.6C324.233 248.958 323.446 249.901 321.245 250.845C316.797 252.357 312.098 252.997 307.406 252.731C302.61 252.26 302.925 250.688 303.397 249.115C301.746 247.7 301.981 246.049 303.632 245.342C305.283 244.634 314.169 241.883 322.582 243.691Z" fill="#66BCFF"/>
<path d="M287.12 161.621H307.721V172.855H287.12V161.621Z" fill="white"/>
<path d="M245.212 161.857C244.818 163.454 244.793 165.121 245.139 166.729C245.484 168.338 246.192 169.847 247.207 171.142C248.222 172.437 249.519 173.485 250.998 174.205C252.478 174.925 254.102 175.299 255.748 175.299H278.236L288.772 181.195V180.881C293.568 180.881 296.319 179.308 294.196 161.699C295.14 156.747 299.543 137.251 301.981 122.708C304.182 109.423 299.229 104.549 285.547 96.8453C279.729 79.5509 264.633 80.5728 261.724 90.9495C258.815 101.326 249.222 145.427 245.212 161.857Z" fill="#66BCFF"/>
<path d="M287.434 186.777L291.051 187.406C291.228 187.441 291.396 187.514 291.543 187.619C291.689 187.724 291.811 187.86 291.901 188.016C291.99 188.172 292.045 188.346 292.061 188.526C292.077 188.705 292.055 188.887 291.995 189.057L291.209 191.022C302.138 191.651 311.652 192.594 315.426 195.896C319.2 199.198 319.2 204.229 320.93 219.243C322.66 234.258 325.49 243.22 320.93 245.264C316.3 247.251 311.236 248.01 306.226 247.465C301.194 246.993 300.723 244.399 299.7 236.617C298.678 228.834 296.242 211.54 296.242 211.54H256.535C246.706 211.54 240.887 205.093 239.55 199.591C238.607 195.66 239.865 186.384 242.145 175.378H278.235L288.772 181.274L287.986 184.655L287.434 186.777Z" fill="#3442D9"/>
<path d="M254.333 175.534C250.401 195.187 249.615 209.966 264.554 216.726" stroke="#2330BF" stroke-width="2.46087" stroke-miterlimit="10"/>
<path d="M285.234 165.631C285.234 165.631 283.583 175.3 281.302 186.777C278.708 199.984 279.415 199.512 297.421 200.691C313.225 201.713 311.81 200.927 315.112 218.929C316.37 226.004 318.572 238.818 317.943 245.893C317.943 245.893 318.651 250.059 318.493 250.924" stroke="#2467D4" stroke-width="2.46087" stroke-linecap="round" stroke-linejoin="round"/>
<path d="M296.242 211.539C304.969 210.203 309.215 202.342 309.215 202.342" stroke="#05060C" stroke-width="2.46087" stroke-linecap="round" stroke-linejoin="round"/>
<path d="M296.242 211.539C298.027 210.487 299.587 209.09 300.829 207.43C302.07 205.77 302.97 203.88 303.475 201.87" stroke="#05060C" stroke-width="2.46087" stroke-linecap="round" stroke-linejoin="round"/>
<path d="M245.212 161.857C247.256 153.367 250.873 137.645 254.254 122.944L271.867 121.608L285.469 131.198L293.332 141.732L297.342 147.157C295.926 153.917 294.748 159.42 294.276 161.778C296.399 179.387 293.647 180.959 288.851 180.959L274.933 175.063L242.695 172.784C243.482 169.246 244.347 165.552 245.212 161.857Z" fill="#EB459F"/>
<path d="M281.247 153.007C280.256 147.142 280.77 142.164 282.398 141.889C284.025 141.614 286.147 146.145 287.14 152.011C288.132 157.875 287.617 162.852 285.99 163.127C284.363 163.402 282.24 158.871 281.247 153.007Z" fill="#05060C"/>
<path d="M291.524 138.431C290.738 137.016 289.872 135.601 289.007 134.343C280.122 121.529 271.788 118.07 263.768 118.07H253.783C253.633 118.074 253.488 118.114 253.356 118.184C253.226 118.255 253.113 118.356 253.029 118.479C252.945 118.602 252.891 118.742 252.871 118.89C252.852 119.038 252.867 119.188 252.917 119.328L254.254 122.944C269.587 122.944 275.012 122.473 287.75 135.836L293.332 141.732L291.524 138.431Z" fill="#D11583"/>
<path d="M242.695 172.784H268.722C274.54 172.784 281.695 172.47 288.85 180.96L287.986 184.654C283.818 180.645 279.966 178.916 271.631 178.916H241.437L242.695 172.784Z" fill="#05060C"/>
<path d="M287.75 136.308C293.018 137.251 297.185 140.003 299.544 144.876C300.214 146.229 301.181 147.411 302.375 148.335L316.528 158.633C318.118 159.762 319.227 161.447 319.635 163.354C320.042 165.261 319.719 167.252 318.729 168.931C318.039 170.111 317.05 171.087 315.864 171.763C314.677 172.439 313.333 172.791 311.967 172.783H306.07C293.804 165.944 288.143 161.306 285.234 158.633C282.324 155.961 279.101 151.165 279.651 145.663C280.202 140.16 281.774 135.207 287.75 136.308Z" fill="white"/>
<path d="M283.347 95.6663C285.234 92.5219 287.75 88.3555 288.693 86.3902C289.637 84.4249 291.917 84.8966 288.693 93.701C296.556 90.7138 298.207 91.8144 298.6 92.9149C298.994 94.0155 297.264 94.5658 293.961 96.4524C290.659 98.3391 287.121 100.619 287.121 100.619L283.347 95.6663Z" fill="#66BCFF"/>
<path d="M275.169 95.9017C273.833 94.2509 273.36 92.4428 274.146 91.8139C274.933 91.185 275.798 91.4995 276.978 93.0717C277.486 93.7108 278.038 94.3153 278.629 94.8798C279.966 96.1375 279.651 97.0809 279.022 97.6311C278.393 98.1814 276.506 97.5525 275.169 95.9017Z" fill="#05060C"/>
<path d="M261.803 91.0283C261.803 91.0283 271.159 86.7834 275.169 84.1892C279.179 81.595 281.224 77.7431 279.415 76.7211C277.607 75.6992 274.146 78.1361 271.709 81.2806C271.788 75.6992 270.844 74.5201 269.35 74.4415C267.856 74.3629 267.7 76.5639 267.621 79.7084C267.542 82.8528 266.991 84.1106 264.632 86.2331C263.22 87.5042 262.233 89.1778 261.803 91.0283Z" fill="#3442D9"/>
<path d="M296.162 117.128C298.364 117.128 300.251 115.241 298.521 111.94C296.791 108.638 291.131 105.336 288.379 104.079C285.627 102.821 284.368 104.079 284.289 105.022C284.211 105.965 284.605 107.38 286.57 109.896C288.536 112.411 292.152 117.128 296.162 117.128Z" fill="white"/>
<path d="M294.433 116.891L295.769 117.127L297.656 110.681L296.555 109.502L294.433 116.891Z" fill="#8CD9FF"/>
<path d="M289.558 113.432L290.658 114.533L292.861 106.593L291.681 105.807L289.558 113.432Z" fill="#8CD9FF"/>
<path d="M285.154 107.931L286.177 109.346L287.75 103.843L286.413 103.607L285.154 107.931Z" fill="#8CD9FF"/>
<path d="M286.885 102.898C285.429 103.593 283.932 104.197 282.402 104.706" stroke="#05060C" stroke-width="2.46087" stroke-linecap="round" stroke-linejoin="round"/>
<path d="M288.85 190.471L280.201 201.005" stroke="#05060C" stroke-width="2.46087" stroke-linecap="round" stroke-linejoin="round"/>
<path d="M282.089 187.327H285.154L286.099 183.004L286.964 178.995C286.167 178.214 285.327 177.479 284.448 176.793L283.425 181.196L282.089 187.327Z" fill="#3442D9"/>
<path d="M268.486 183.161H271.553L272.495 178.916L273.753 172.941H270.688L269.429 178.994L268.486 183.161Z" fill="#3442D9"/>
<path d="M243.403 183.003H246.47L247.413 178.915L248.672 172.784H245.605L244.347 178.915L243.403 183.003Z" fill="#3442D9"/>
<path d="M251.817 133.322C253.322 132.129 255.166 131.441 257.084 131.357C261.173 131.357 263.453 135.366 264.239 139.218C264.366 139.836 264.7 140.391 265.187 140.792C265.673 141.193 266.283 141.414 266.913 141.419H267.463C267.818 141.354 268.156 141.218 268.456 141.018C268.757 140.819 269.014 140.561 269.212 140.26C269.411 139.959 269.547 139.621 269.61 139.267C269.675 138.911 269.666 138.547 269.586 138.196C268.092 130.728 263.217 125.933 257.084 125.933C256.07 125.945 255.089 126.302 254.303 126.945C253.518 127.587 252.973 128.478 252.76 129.47L251.817 133.322Z" fill="white"/>
<path d="M245.212 161.857C245.038 162.56 245.01 163.291 245.128 164.005C245.246 164.72 245.507 165.403 245.897 166.013C246.287 166.623 246.797 167.147 247.395 167.554C247.993 167.962 248.669 168.244 249.379 168.382L251.344 168.539C255.826 168.539 260.466 165.867 264.083 161.229C264.299 160.939 264.457 160.611 264.547 160.261C264.636 159.91 264.656 159.546 264.605 159.189C264.554 158.831 264.433 158.487 264.249 158.176C264.065 157.865 263.821 157.594 263.532 157.377C263.247 157.149 262.918 156.983 262.567 156.887C262.215 156.792 261.847 156.769 261.487 156.82C261.126 156.872 260.78 156.996 260.468 157.187C260.158 157.377 259.889 157.629 259.68 157.927C257.164 161.15 254.096 163.115 251.344 163.115C248.592 163.115 246.941 161.543 245.762 159.499C245.605 160.364 245.369 161.15 245.212 161.857Z" fill="#2331B5"/>
<path d="M250.48 139.374C251.035 139.377 251.576 139.552 252.027 139.876C252.477 140.2 252.816 140.656 252.996 141.182L256.299 150.065C256.587 150.899 256.581 151.807 256.281 152.637C255.979 153.467 255.403 154.168 254.648 154.624C254.306 154.834 253.92 154.965 253.522 155.006C253.122 155.048 252.719 154.998 252.341 154.862C251.963 154.726 251.621 154.507 251.34 154.221C251.058 153.935 250.845 153.589 250.716 153.209L248.592 147.47C249.143 144.876 249.773 142.204 250.48 139.374Z" fill="#5865F2"/>
<path d="M254.648 154.625C255.403 154.169 255.979 153.467 256.281 152.637C256.581 151.807 256.587 150.899 256.299 150.065L255.355 147.628C255.197 147.203 254.949 146.817 254.628 146.496C254.306 146.176 253.919 145.929 253.494 145.772C253.068 145.616 252.613 145.553 252.161 145.588C251.708 145.624 251.269 145.756 250.873 145.977C250.226 146.355 249.731 146.946 249.473 147.649C249.215 148.352 249.21 149.123 249.458 149.829L250.716 153.21C250.845 153.589 251.058 153.935 251.34 154.221C251.621 154.507 251.963 154.727 252.341 154.863C252.719 154.999 253.122 155.048 253.522 155.007C253.92 154.966 254.306 154.835 254.648 154.625Z" fill="#FFE75C"/>
<path d="M296.32 167.203C298.838 168.953 301.667 170.206 304.655 170.897" stroke="#A3D7FF" stroke-width="2.46087" stroke-linecap="round" stroke-linejoin="round"/>
<path d="M265.89 282.368H279.65C288.063 282.368 295.848 275.607 297.028 267.274C298.207 258.942 292.86 254.539 283.818 252.574L282.245 252.181C280.972 251.915 279.848 251.172 279.103 250.106C278.358 249.04 278.048 247.729 278.235 246.442C278.388 245.19 278.961 244.026 279.861 243.141C280.76 242.256 281.934 241.701 283.189 241.569L285.469 241.333C295.219 240.311 301.666 234.572 302.845 226.239C304.025 217.907 298.206 211.539 290.029 211.539H276.269C267.856 211.539 260.073 218.3 258.893 226.632L253.074 267.667C251.973 275.764 257.713 282.368 265.89 282.368Z" fill="#ADB4FF"/>
<path d="M249.93 282.368H263.69C272.103 282.368 279.887 275.607 281.067 267.274C281.545 264.208 280.882 261.073 279.2 258.464C277.518 255.855 274.937 253.954 271.946 253.124C270.842 252.828 269.886 252.135 269.262 251.177C268.638 250.22 268.389 249.066 268.565 247.936L268.958 244.949C269.108 243.998 269.541 243.116 270.2 242.414C270.859 241.714 271.714 241.227 272.653 241.018C279.808 239.525 285.863 233.472 286.885 226.239C287.907 219.007 282.246 211.539 274.069 211.539H260.309C251.896 211.539 244.111 218.3 242.932 226.632L237.114 267.667C236.013 275.764 241.753 282.368 249.93 282.368Z" fill="white"/>
<path d="M253.39 225.375C253.332 225.768 253.361 226.168 253.474 226.548C253.587 226.93 253.78 227.281 254.042 227.58C254.303 227.879 254.626 228.117 254.989 228.279C255.351 228.441 255.744 228.523 256.142 228.519H270.608C271.483 228.495 272.321 228.169 272.98 227.595C273.64 227.021 274.08 226.236 274.226 225.375V224.903C274.297 224.519 274.281 224.122 274.178 223.745C274.075 223.368 273.888 223.019 273.631 222.724C273.374 222.429 273.053 222.196 272.693 222.042C272.333 221.889 271.943 221.819 271.553 221.837H257.006C256.144 221.858 255.314 222.174 254.656 222.731C253.998 223.289 253.551 224.056 253.39 224.903V225.375Z" fill="#66BCFF"/>
<path d="M259.68 231.193C259.61 231.581 259.627 231.98 259.729 232.361C259.832 232.742 260.019 233.095 260.274 233.396C260.53 233.696 260.848 233.937 261.207 234.1C261.567 234.262 261.958 234.343 262.352 234.337H262.745C263.62 234.313 264.458 233.986 265.118 233.413C265.777 232.84 266.218 232.054 266.363 231.193L268.092 219.087C268.151 218.697 268.122 218.3 268.009 217.923C267.896 217.547 267.701 217.199 267.438 216.906C267.175 216.613 266.851 216.382 266.488 216.229C266.126 216.076 265.734 216.005 265.34 216.021H264.947C264.084 216.041 263.255 216.357 262.597 216.915C261.939 217.473 261.492 218.239 261.331 219.087L259.68 231.193Z" fill="#66BCFF"/>
<path d="M257.87 249.429C257.849 249.59 257.86 249.753 257.905 249.91C257.949 250.066 258.025 250.212 258.129 250.338C258.232 250.463 258.36 250.566 258.506 250.639C258.65 250.713 258.809 250.756 258.972 250.765H259.207C259.569 250.737 259.911 250.591 260.181 250.349C260.45 250.108 260.633 249.785 260.701 249.429L261.409 244.398C261.433 244.233 261.421 244.067 261.371 243.908C261.321 243.75 261.237 243.605 261.123 243.484C261.01 243.363 260.871 243.27 260.716 243.21C260.561 243.15 260.395 243.126 260.229 243.14H260.073C259.714 243.135 259.366 243.26 259.092 243.491C258.817 243.722 258.635 244.044 258.579 244.398L257.87 249.429Z" fill="#ADB4FF"/>
<path d="M258.186 265.309C259.048 265.289 259.877 264.973 260.535 264.415C261.193 263.857 261.641 263.091 261.802 262.243V261.772C261.874 261.387 261.858 260.991 261.755 260.614C261.652 260.236 261.465 259.887 261.207 259.593C260.95 259.298 260.63 259.064 260.269 258.911C259.91 258.758 259.52 258.688 259.129 258.706H258.735C257.884 258.722 257.063 259.027 256.406 259.57C255.75 260.111 255.296 260.861 255.119 261.693V262.243C255.06 262.633 255.089 263.03 255.203 263.407C255.315 263.783 255.51 264.131 255.773 264.424C256.036 264.717 256.36 264.948 256.723 265.101C257.086 265.254 257.477 265.325 257.87 265.309H258.186Z" fill="#66BCFF"/>
<path d="M256.141 277.022H256.535C257.401 277.016 258.238 276.706 258.9 276.145C259.56 275.585 260.004 274.81 260.151 273.956V273.248C260.184 272.871 260.138 272.491 260.014 272.134C259.89 271.777 259.691 271.449 259.43 271.175C259.17 270.9 258.855 270.683 258.504 270.539C258.154 270.395 257.778 270.327 257.399 270.34H257.006C256.154 270.356 255.334 270.661 254.677 271.203C254.02 271.745 253.566 272.494 253.389 273.327V273.877C253.318 274.273 253.337 274.678 253.444 275.065C253.551 275.452 253.744 275.81 254.008 276.111C254.272 276.414 254.601 276.652 254.971 276.81C255.34 276.968 255.74 277.04 256.141 277.022Z" fill="#FF78B9"/>
<path d="M257.793 265.309H258.186C259.048 265.289 259.877 264.973 260.535 264.415C261.193 263.857 261.641 263.091 261.802 262.243V261.772C261.874 261.387 261.858 260.991 261.755 260.614C261.652 260.236 261.465 259.887 261.207 259.593C260.95 259.298 260.63 259.064 260.269 258.911C259.91 258.758 259.52 258.688 259.129 258.706H258.735C257.884 258.722 257.063 259.027 256.406 259.57C255.75 260.111 255.296 260.861 255.119 261.693V262.243C255.062 262.626 255.089 263.016 255.197 263.387C255.306 263.758 255.494 264.102 255.748 264.393C256.002 264.684 256.317 264.917 256.67 265.076C257.022 265.234 257.406 265.313 257.793 265.309Z" fill="#5865F2"/>
<path d="M250.323 271.126C251.186 271.105 252.014 270.789 252.672 270.232C253.33 269.674 253.778 268.907 253.939 268.06V267.588C254.011 267.204 253.995 266.808 253.892 266.43C253.789 266.053 253.602 265.704 253.345 265.409C253.088 265.114 252.767 264.881 252.407 264.727C252.047 264.574 251.657 264.504 251.266 264.522H250.873C250.021 264.539 249.2 264.844 248.544 265.386C247.887 265.928 247.433 266.677 247.256 267.51V268.06C247.184 268.444 247.201 268.84 247.304 269.218C247.407 269.595 247.594 269.944 247.851 270.239C248.108 270.534 248.429 270.767 248.789 270.92C249.148 271.074 249.538 271.145 249.93 271.126H250.323Z" fill="#66BCFF"/>
<path d="M249.93 271.126H250.323C251.186 271.105 252.014 270.789 252.672 270.232C253.33 269.674 253.778 268.907 253.939 268.06V267.588C254.011 267.204 253.995 266.808 253.892 266.43C253.789 266.053 253.602 265.704 253.345 265.409C253.088 265.114 252.767 264.881 252.407 264.727C252.047 264.574 251.657 264.504 251.266 264.522H250.873C250.021 264.539 249.2 264.844 248.544 265.386C247.887 265.928 247.433 266.677 247.256 267.51V268.06C247.184 268.444 247.201 268.84 247.304 269.218C247.407 269.595 247.594 269.944 247.851 270.239C248.108 270.534 248.429 270.767 248.789 270.92C249.148 271.074 249.538 271.145 249.93 271.126Z" fill="#5865F2"/>
<path d="M264.004 271.283H264.476C265.34 271.256 266.168 270.926 266.814 270.352C267.461 269.777 267.885 268.994 268.014 268.139V267.431C268.06 267.059 268.023 266.681 267.909 266.323C267.794 265.965 267.603 265.637 267.349 265.36C267.095 265.083 266.784 264.866 266.437 264.721C266.09 264.576 265.716 264.509 265.341 264.523H264.869C264.02 264.561 263.208 264.884 262.567 265.441C261.924 265.998 261.489 266.754 261.331 267.589V268.06C261.247 268.454 261.254 268.862 261.351 269.253C261.448 269.644 261.632 270.008 261.888 270.317C262.145 270.627 262.469 270.875 262.836 271.043C263.202 271.209 263.601 271.292 264.004 271.283Z" fill="#FF78B9"/>
<path d="M391.617 266.645L399.244 262.4C393.257 252.543 386.666 243.065 379.508 234.021C393.583 239.131 408.365 245.499 424.719 245.499H452.082C453.733 242.118 454.205 238.659 454.205 233.471L420.788 221.286L408.129 223.881L407.736 227.497C395.627 224.431 383.125 220.893 374.083 218.771C362.682 216.098 358.829 221.837 365.434 231.427C378.172 249.979 391.617 266.645 391.617 266.645Z" fill="#29CC7A"/>
<path d="M444.534 230.327C444.534 237.009 444.534 241.725 441.31 244.398C440.534 245.102 439.526 245.493 438.479 245.499H435.177C443.197 244.162 443.197 239.839 443.118 230.327V229.698C443.118 229.619 443.197 229.541 443.197 229.462L444.534 229.934V230.327Z" fill="#15AD75"/>
<path d="M391.617 263.107C379.351 246.913 371.488 235.672 368.186 230.405C364.884 225.138 363.783 221.836 380.452 227.496C397.121 233.156 409.78 238.266 413.476 236.851C417.171 235.436 415.835 231.663 415.599 224.981" stroke="#15AD75" stroke-width="2.46087" stroke-linecap="round" stroke-linejoin="round"/>
<path d="M440.681 186.776C446.318 178.101 450.96 168.819 454.519 159.105C455.023 157.49 455.135 155.778 454.848 154.111C454.561 152.444 453.883 150.868 452.868 149.515C447.128 142.597 439.58 138.902 429.516 137.173C428.42 137.052 427.32 137.362 426.449 138.037C414.498 148.493 410.959 160.284 408.915 171.762C408.864 172.424 408.981 173.088 409.256 173.694C409.531 174.298 409.955 174.823 410.488 175.22C416.385 178.837 419.53 179.937 419.53 179.937L418.351 188.663L440.681 186.776Z" fill="#FFE75C"/>
<path d="M429.28 157.455C423.388 158.002 417.533 158.894 411.746 160.128L408.522 160.993C408.403 161.026 408.295 161.089 408.208 161.177C408.121 161.264 408.059 161.373 408.027 161.492C407.995 161.611 407.995 161.737 408.027 161.856C408.059 161.975 408.121 162.084 408.208 162.172L408.915 162.801L407.657 167.675C407.25 169.165 407.354 170.75 407.953 172.174C408.551 173.599 409.61 174.783 410.96 175.536L413.869 177.186L429.28 157.455Z" fill="#FFE75C"/>
<path d="M426.76 163.247C425.264 162.204 425.562 159.193 427.425 156.523C429.289 153.851 432.012 152.532 433.508 153.575C435.003 154.619 434.705 157.629 432.842 160.301C430.979 162.971 428.255 164.29 426.76 163.247Z" fill="#FF78B9"/>
<path d="M417.486 152.345C418.429 151.481 419.451 151.245 419.845 151.638C420.238 152.031 420.002 152.66 419.137 153.289L418.115 154.311C417.407 155.097 416.857 154.94 416.542 154.546C416.228 154.153 416.542 153.131 417.486 152.345Z" fill="#05060C"/>
<path d="M448.701 145.348C449.959 132.692 448.701 128.447 446.027 124.752C443.354 121.057 441.781 122.158 442.253 127.032C442.539 130.853 442.513 134.692 442.175 138.509C439.849 132.554 436.466 127.068 432.189 122.315C430.922 120.779 429.224 119.657 427.314 119.092C425.427 118.62 424.405 119.721 424.955 121.529C425.899 124.595 428.179 129.469 434.312 138.195L433.683 141.654L448.701 145.348Z" fill="#FFE75C"/>
<path d="M411.982 194.245C405.298 196.524 410.016 217.435 410.016 217.435L409.073 218.142C408.301 218.733 407.755 219.57 407.526 220.514C407.297 221.458 407.399 222.453 407.814 223.331L408.129 223.881C412.768 223.881 415.835 224.274 422.125 228.755C428.415 233.236 432.425 233.471 438.872 233.471H454.205V228.283C459.945 226.003 460.416 223.252 458.215 219.715C457.035 217.671 455.148 214.841 453.733 212.718C453.19 211.907 452.813 210.996 452.624 210.038C452.435 209.079 452.438 208.093 452.632 207.137C453.89 200.376 452.868 196.367 452.868 196.367L436.199 191.886L415.048 191.021L411.982 194.245Z" fill="#2331B5"/>
<path d="M412.474 213.5C410.459 212.967 409.752 209.031 410.894 204.707C412.037 200.384 414.597 197.311 416.612 197.843C418.627 198.375 419.335 202.312 418.192 206.635C417.05 210.959 414.49 214.032 412.474 213.5Z" fill="#05060C"/>
<path d="M402.232 262.872C400.345 260.907 396.256 257.605 396.256 257.605C393.661 257.605 389.73 258.077 388 265.231L385.877 273.642C377.779 275.136 377.7 277.415 378.801 280.403V281.739C378.801 281.906 378.867 282.066 378.985 282.184C379.103 282.302 379.263 282.368 379.43 282.368H392.954L402.232 262.872Z" fill="white"/>
<path d="M379.43 282.368C379.263 282.368 379.103 282.302 378.985 282.184C378.867 282.066 378.801 281.906 378.801 281.739V280.403C384.147 280.403 388.079 280.953 390.045 277.494C392.154 273.309 394.018 269.004 395.627 264.602C396.335 262.558 397.829 260.121 400.109 260.829L402.232 262.872L392.954 282.368H379.43Z" fill="#FF78B9"/>
<path d="M385.17 282.368C386.592 282.39 387.996 282.047 389.249 281.373C390.501 280.699 391.56 279.716 392.325 278.516C395.234 274.114 397.042 268.847 398.143 265.624C399.244 262.401 402.782 261.143 403.097 265.231C403.411 269.319 401.288 272.463 397.986 280.639C397.803 281.156 397.461 281.602 397.009 281.913C396.557 282.223 396.019 282.383 395.47 282.368H385.17Z" fill="#05060C"/>
<path d="M411.982 194.245L399.558 198.49C398.3 181.117 393.032 176.165 386.899 162.329C382.496 152.503 380.452 148.022 379.587 146.292C379.461 146.004 379.251 145.759 378.985 145.591C378.719 145.423 378.408 145.339 378.093 145.349H377.621C377.38 145.348 377.142 145.398 376.921 145.494C376.7 145.59 376.502 145.732 376.339 145.909C376.176 146.087 376.052 146.297 375.975 146.526C375.898 146.754 375.869 146.996 375.891 147.236C376.674 151.879 377.911 156.435 379.587 160.835C375.891 158.32 374.24 158.32 372.51 160.914C368.265 158.713 366.692 158.634 365.198 161.936C363.704 165.238 363.94 165.866 364.726 168.539C365.513 171.212 366.692 171.448 368.5 171.448C368.5 189.686 369.68 196.525 378.25 208.788C385.877 219.715 386.27 218.379 396.649 215.077C402.625 213.19 408.522 211.068 412.375 209.574C414.607 208.761 416.483 207.191 417.676 205.137C418.869 203.082 419.302 200.674 418.901 198.333C418.193 195.031 415.992 192.909 411.982 194.245Z" fill="#FFE75C"/>
<path d="M411.982 194.245C411.558 193.744 411.164 193.22 410.802 192.673C410.592 192.381 410.447 192.048 410.376 191.695C410.306 191.343 410.312 190.979 410.394 190.629C410.476 190.278 410.632 189.95 410.851 189.665C411.071 189.381 411.349 189.146 411.667 188.978C433.133 177.186 440.681 175.771 452.475 175.771C460.102 175.771 459.709 177.737 459.001 181.353C464.427 186.384 464.348 188.113 460.574 193.066C456.8 198.018 455.62 199.984 452.082 199.984C448.544 199.984 440.288 200.062 433.054 196.368C425.82 192.673 422.361 190.786 411.982 194.245Z" fill="white"/>
<path d="M412.296 158.633C421.024 157.14 429.909 156.196 429.988 156.196C430.076 156.185 430.167 156.193 430.252 156.22C430.338 156.246 430.417 156.291 430.484 156.35C430.551 156.41 430.604 156.483 430.641 156.565C430.677 156.647 430.696 156.735 430.695 156.825C430.719 157.001 430.676 157.18 430.574 157.326C430.472 157.471 430.318 157.573 430.145 157.611C429.987 157.611 420.709 158.555 411.746 160.127C411.903 159.655 412.06 159.183 412.296 158.633Z" fill="#05060C"/>
<path d="M429.83 155.804C430.297 156.483 430.718 157.192 431.088 157.927" stroke="#05060C" stroke-width="2.46087" stroke-linecap="round" stroke-linejoin="round"/>
<path d="M399.558 198.49L394.369 199.983" stroke="#05060C" stroke-width="2.46087" stroke-linecap="round" stroke-linejoin="round"/>
<path d="M444.298 144.248C444.378 144.544 444.483 144.833 444.612 145.113C444.666 145.239 444.753 145.35 444.864 145.432C444.974 145.515 445.104 145.568 445.241 145.584H445.477C445.563 145.558 445.643 145.515 445.711 145.455C445.779 145.396 445.834 145.323 445.871 145.241C445.908 145.16 445.928 145.07 445.927 144.98C445.927 144.89 445.908 144.801 445.87 144.719C445.792 144.484 444.14 139.61 442.647 136.151C442.583 136.011 442.472 135.899 442.332 135.836C442.332 136.78 442.253 137.644 442.175 138.588C442.096 139.531 443.826 142.833 444.298 144.248Z" fill="#FFC619"/>
<path d="M370.859 194.796C370.577 193.96 370.494 193.07 370.617 192.196C370.74 191.323 371.065 190.49 371.567 189.765C371.916 189.353 372.312 188.984 372.746 188.664C373.725 188.107 374.84 187.835 375.965 187.876C377.089 187.918 378.18 188.272 379.115 188.9C378.644 186.227 378.015 181.353 378.486 177.658C378.958 173.964 380.373 174.435 381.238 174.278C383.754 173.806 387.214 176.479 390.28 181.275C390.831 178.68 391.617 177.423 392.875 177.108C393.219 177.039 393.576 177.087 393.889 177.243C394.202 177.4 394.454 177.657 394.605 177.973L395.784 180.803C394.212 178.445 393.347 178.445 393.111 178.445C392.875 178.445 391.853 179.073 391.303 183.318C391.286 183.458 391.222 183.589 391.123 183.689C391.023 183.788 390.892 183.852 390.752 183.869C390.605 183.897 390.453 183.882 390.314 183.826C390.174 183.77 390.053 183.676 389.966 183.554C386.742 177.658 383.283 175.3 381.474 175.615C379.666 175.929 379.98 176.951 379.902 177.894C379.194 182.69 380.767 190.315 380.767 190.393C380.789 190.529 380.77 190.669 380.715 190.794C380.659 190.919 380.568 191.026 380.452 191.101C380.314 191.165 380.161 191.192 380.009 191.178C379.857 191.165 379.711 191.11 379.587 191.022C377.857 189.214 375.184 188.743 373.533 189.843C371.882 190.944 371.095 194.953 372.904 199.905C372.075 198.265 371.39 196.555 370.859 194.796Z" fill="#FFF4B3"/>
<path d="M383.911 162.642C381.238 161.149 380.295 160.284 377.936 162.642C374.791 160.992 374.162 160.992 372.432 163.507" stroke="#FFC619" stroke-width="2.46087" stroke-linecap="round" stroke-linejoin="round"/>
<path d="M367.085 171.133C367.164 168.931 367.4 165.551 367.478 165.473C367.478 165.383 367.497 165.294 367.533 165.212C367.569 165.131 367.622 165.058 367.69 164.998C367.757 164.938 367.835 164.893 367.921 164.867C368.007 164.841 368.097 164.833 368.186 164.844C368.276 164.843 368.365 164.862 368.446 164.898C368.528 164.934 368.601 164.988 368.661 165.055C368.721 165.122 368.766 165.201 368.792 165.286C368.818 165.372 368.826 165.462 368.815 165.551C368.815 165.63 368.501 169.01 368.501 171.211C368.505 171.254 368.499 171.297 368.486 171.337C368.472 171.378 368.45 171.415 368.422 171.447H367.164L367.085 171.133Z" fill="#05060C"/>
<path d="M366.22 168.459H367.95C368.043 168.459 368.135 168.441 368.221 168.406C368.307 168.37 368.385 168.318 368.45 168.252C368.516 168.187 368.568 168.109 368.604 168.022C368.64 167.937 368.658 167.845 368.658 167.752C368.638 167.578 368.556 167.418 368.425 167.301C368.294 167.186 368.125 167.122 367.95 167.123H366.22C366.046 167.122 365.877 167.186 365.746 167.301C365.615 167.418 365.532 167.578 365.513 167.752C365.513 167.845 365.531 167.937 365.567 168.022C365.602 168.109 365.654 168.187 365.72 168.252C365.785 168.318 365.863 168.37 365.95 168.406C366.035 168.441 366.127 168.459 366.22 168.459Z" fill="#05060C"/>
<path d="M390.752 213.977C389.092 213.936 387.436 213.778 385.799 213.505" stroke="#FFC619" stroke-width="2.46087" stroke-linecap="round" stroke-linejoin="round"/>
<path d="M441.074 231.113C450.038 230.012 454.048 228.361 454.126 228.361H454.205V229.776C452.868 230.248 448.858 231.506 441.231 232.528H441.153C440.978 232.529 440.809 232.465 440.678 232.349C440.547 232.233 440.464 232.073 440.445 231.899C440.434 231.806 440.442 231.712 440.467 231.621C440.493 231.532 440.537 231.448 440.595 231.374C440.654 231.301 440.726 231.241 440.808 231.195C440.89 231.15 440.981 231.122 441.074 231.113Z" fill="#05060C"/>
<path d="M407.736 227.497C409.742 228.136 411.554 229.272 413.004 230.798" stroke="#05060C" stroke-width="2.46087" stroke-linecap="round" stroke-linejoin="round"/>
<path d="M378.801 234.021C375.623 232.616 372.549 230.987 369.601 229.147" stroke="#05060C" stroke-width="2.46087" stroke-linecap="round" stroke-linejoin="round"/>
<path d="M377.228 233.314L373.061 233.472" stroke="#05060C" stroke-width="2.46087" stroke-linecap="round" stroke-linejoin="round"/>
<path d="M458.293 180.959C445.241 179.702 435.963 182.689 423.147 188.427C435.963 187.563 451.06 187.091 451.06 187.091" stroke="#BAE8FF" stroke-width="2.46087" stroke-linecap="round" stroke-linejoin="round"/>
<path d="M461.832 245.499H409.465C408.715 245.499 407.995 245.796 407.464 246.327C406.933 246.858 406.635 247.578 406.635 248.329V282.367H464.662V248.329C464.662 247.578 464.364 246.858 463.833 246.327C463.302 245.796 462.582 245.499 461.832 245.499Z" fill="#8CD9FF"/>
<path d="M411.824 245.499H409.466C408.715 245.499 407.995 245.796 407.464 246.327C406.933 246.858 406.635 247.578 406.635 248.329V282.367H414.655V248.329C414.655 247.957 414.582 247.589 414.44 247.245C414.297 246.903 414.089 246.59 413.826 246.327C413.563 246.065 413.251 245.856 412.908 245.714C412.564 245.572 412.196 245.499 411.824 245.499Z" fill="#45AAF7"/>
<path d="M456.957 271.519H422.361C421.735 271.519 421.135 271.767 420.693 272.21C420.25 272.652 420.002 273.252 420.002 273.877V282.367H459.237V273.877C459.237 273.265 459 272.677 458.574 272.237C458.149 271.797 457.569 271.539 456.957 271.519Z" fill="#45AAF7"/>
<path d="M455.384 245.499V282.367" stroke="#5865F2" stroke-width="2.46087" stroke-miterlimit="10"/>
<path d="M424.012 245.499V282.367" stroke="#5865F2" stroke-width="2.46087" stroke-miterlimit="10"/>
<path d="M422.046 248.33H457.35C458.436 248.33 459.316 249.209 459.316 250.295V262.865C459.316 263.95 458.436 264.83 457.35 264.83H422.046C420.96 264.83 420.08 263.95 420.08 262.865V250.295C420.08 249.209 420.96 248.33 422.046 248.33Z" fill="#05060C"/>
<path d="M415.363 251.002C415.469 250.989 415.577 251.001 415.678 251.036C415.779 251.071 415.871 251.129 415.947 251.204C416.022 251.28 416.08 251.371 416.115 251.473C416.15 251.574 416.162 251.682 416.149 251.788C416.149 251.996 416.066 252.197 415.919 252.344C415.771 252.492 415.571 252.574 415.363 252.574H406.635V251.002H415.363Z" fill="#5865F2"/>
<path d="M416.149 255.168C416.162 255.274 416.15 255.382 416.115 255.483C416.08 255.585 416.022 255.676 415.947 255.752C415.871 255.827 415.779 255.885 415.678 255.92C415.577 255.955 415.469 255.967 415.363 255.954H406.635V254.382H415.363C415.571 254.382 415.771 254.464 415.919 254.612C416.066 254.759 416.149 254.96 416.149 255.168Z" fill="#5865F2"/>
<path d="M416.149 258.627C416.149 258.836 416.066 259.036 415.919 259.183C415.771 259.331 415.571 259.414 415.363 259.414H406.635V257.841H415.363C415.469 257.829 415.577 257.841 415.678 257.875C415.779 257.91 415.871 257.968 415.947 258.043C416.022 258.12 416.08 258.212 416.115 258.312C416.15 258.414 416.162 258.521 416.149 258.627Z" fill="#5865F2"/>
<path d="M463.247 251.788C463.265 251.991 463.353 252.18 463.497 252.324C463.641 252.468 463.83 252.556 464.033 252.574H464.662V251.002H464.033C463.824 251.002 463.625 251.084 463.477 251.232C463.33 251.379 463.247 251.58 463.247 251.788Z" fill="#5865F2"/>
<path d="M463.247 255.168C463.247 255.376 463.33 255.577 463.477 255.724C463.625 255.872 463.824 255.954 464.033 255.954H464.662V254.382H464.033C463.83 254.4 463.641 254.488 463.497 254.632C463.353 254.776 463.265 254.965 463.247 255.168Z" fill="#5865F2"/>
<path d="M463.247 258.627C463.265 258.83 463.353 259.02 463.497 259.164C463.641 259.307 463.83 259.396 464.033 259.414H464.662V257.841H464.033C463.824 257.841 463.625 257.924 463.477 258.072C463.33 258.219 463.247 258.419 463.247 258.627Z" fill="#5865F2"/>
<path d="M432.11 249.508H455.148C455.713 249.508 456.17 249.966 456.17 250.53V261.418C456.17 261.982 455.713 262.44 455.148 262.44H432.11C431.546 262.44 431.088 261.982 431.088 261.418V250.53C431.088 249.966 431.546 249.508 432.11 249.508Z" fill="#FFF4B3"/>
<path d="M422.361 262.479H428.651C429.042 262.479 429.359 262.796 429.359 263.187V264.146C429.359 264.537 429.042 264.854 428.651 264.854H422.361C421.97 264.854 421.653 264.537 421.653 264.146V263.187C421.653 262.796 421.97 262.479 422.361 262.479Z" fill="#FF78B9"/>
<path d="M446.892 251.002C446.892 252.92 446.13 254.76 444.773 256.116C443.417 257.472 441.577 258.234 439.658 258.234C437.74 258.234 435.9 257.472 434.543 256.116C433.187 254.76 432.425 252.92 432.425 251.002C432.434 250.5 432.487 250 432.582 249.508H446.735C446.87 249.994 446.923 250.499 446.892 251.002Z" fill="#29CC7A"/>
<path d="M454.047 262.478H442.253C442.922 261.537 443.806 260.77 444.832 260.24C445.858 259.711 446.996 259.435 448.15 259.435C449.305 259.435 450.443 259.711 451.469 260.24C452.495 260.77 453.379 261.537 454.047 262.478Z" fill="#29CC7A"/>
</svg>
